<svg width="24" height="22" viewBox="0 0 24 22" fill="none" xmlns="http://www.w3.org/2000/svg">
<path d="M12.65 14.2161C12.79 13.8944 12.7 13.528 12.42 13.2778L10.33 11.4369L10.36 11.41C12.1 9.67638 13.34 7.68356 14.07 5.57457H16.01C16.55 5.57457 17 5.17243 17 4.68986V4.67199C17 4.18942 16.55 3.78728 16.01 3.78728H10V2.89364C10 2.40214 9.55 2 9 2C8.45 2 8 2.40214 8 2.89364V3.78728H1.99C1.45 3.78728 1 4.18942 1 4.67199C1 5.16349 1.45 5.55669 1.99 5.55669H12.17C11.5 7.29036 10.44 8.92572 9 10.3555C8.19 9.56021 7.51 8.69338 6.94 7.78186C6.78 7.52271 6.49 7.36185 6.16 7.36185C5.47 7.36185 5.03 8.03208 5.37 8.56827C6 9.57808 6.77 10.5432 7.67 11.4369L3.3 15.2885C2.9 15.637 2.9 16.2089 3.3 16.5574C3.69 16.9059 4.32 16.9059 4.72 16.5574L9 12.7237L11.02 14.5289C11.53 14.9846 12.4 14.8148 12.65 14.2161V14.2161ZM17.5 9.14913C16.9 9.14913 16.36 9.47978 16.15 9.98916L12.48 18.7468C12.24 19.292 12.7 19.8728 13.35 19.8728C13.74 19.8728 14.09 19.6584 14.23 19.3277L15.12 17.1919H19.87L20.77 19.3277C20.91 19.6494 21.26 19.8728 21.65 19.8728C22.3 19.8728 22.76 19.292 22.53 18.7468L18.86 9.98916C18.64 9.47978 18.1 9.14913 17.5 9.14913V9.14913ZM15.88 15.4046L17.5 11.5352L19.12 15.4046H15.88V15.4046Z" fill="#1B85D2"/>
</svg>
